<svg xmlns="http://www.w3.org/2000/svg" viewBox="0 0 48 32" role="img" aria-label="Visa">
  <rect width="48" height="32" rx="4" fill="#1A1F71"/>
  <path d="M19.5 22h-3.2l2-12h3.2l-2 12zm13.5-11.7c-.6-.2-1.6-.5-2.9-.5-3.2 0-5.4 1.7-5.4 4.1 0 1.8 1.6 2.8 2.8 3.4 1.3.6 1.7 1 1.7 1.5 0 .8-1 1.2-1.9 1.2-1.3 0-1.9-.2-3-.6l-.4-.2-.4 2.6c.7.3 2.1.6 3.5.6 3.3 0 5.5-1.6 5.5-4.2 0-1.4-.9-2.5-2.8-3.4-1.2-.6-1.9-1-1.9-1.6 0-.5.6-1.1 1.9-1.1 1.1 0 1.9.2 2.5.5l.3.1.5-2.4zM38 10h-2.5c-.8 0-1.4.2-1.7 1l-4.8 11h3.4l.7-1.8h4.1c.1.4.4 1.8.4 1.8h3l-2.6-12zm-4.3 7.7c.3-.7 1.3-3.3 1.3-3.3s.3-.7.5-1.1l.2 1s.6 2.7.7 3.4h-2.7zM14.4 10l-3.1 8.2-.3-1.6c-.6-1.8-2.2-3.7-4.1-4.7l2.6 9.9h3.4l5-12h-3.5z" fill="#fff"/>
</svg>
