<svg xmlns="http://www.w3.org/2000/svg" viewBox="0 0 64 64" fill="none">
  <rect width="64" height="64" rx="12" fill="#0a0a0a"/>
  <rect x="6" y="6" width="20" height="20" rx="3" fill="none" stroke="#d4af37" stroke-width="3"/>
  <rect x="11" y="11" width="10" height="10" rx="1" fill="#d4af37"/>
  <rect x="38" y="6" width="20" height="20" rx="3" fill="none" stroke="#d4af37" stroke-width="3"/>
  <rect x="43" y="11" width="10" height="10" rx="1" fill="#d4af37"/>
  <rect x="6" y="38" width="20" height="20" rx="3" fill="none" stroke="#d4af37" stroke-width="3"/>
  <rect x="11" y="43" width="10" height="10" rx="1" fill="#d4af37"/>
  <rect x="32" y="32" width="4" height="4" fill="#d4af37"/>
  <rect x="40" y="32" width="4" height="4" fill="#d4af37"/>
  <rect x="48" y="32" width="4" height="4" fill="#d4af37"/>
  <rect x="32" y="40" width="4" height="4" fill="#d4af37"/>
  <rect x="44" y="40" width="4" height="4" fill="#d4af37"/>
  <rect x="52" y="40" width="4" height="4" fill="#d4af37"/>
  <rect x="32" y="48" width="4" height="4" fill="#d4af37"/>
  <rect x="40" y="48" width="4" height="4" fill="#d4af37"/>
  <rect x="48" y="48" width="4" height="4" fill="#d4af37"/>
  <rect x="52" y="48" width="4" height="4" fill="#d4af37"/>
  <text x="32" y="62" font-family="Inter, sans-serif" font-size="6" font-weight="700" fill="#d4af37" text-anchor="middle" letter-spacing="0.5">QRIS</text>
</svg>
